<svg xmlns="http://www.w3.org/2000/svg" viewBox="0 0 1100 900" role="img" aria-label="Cappuccino on a cafe table">
  <defs>
    <linearGradient id="table" x1="0" x2="1"><stop offset="0" stop-color="#fff7ef"/><stop offset="1" stop-color="#f6d56d"/></linearGradient>
    <filter id="grain"><feTurbulence baseFrequency=".8" numOctaves="2"/><feComponentTransfer><feFuncA type="table" tableValues="0 .06"/></feComponentTransfer></filter>
  </defs>
  <rect width="1100" height="900" fill="url(#table)"/>
  <rect width="1100" height="900" filter="url(#grain)"/>
  <rect x="0" y="0" width="1100" height="180" fill="#69d2b8"/>
  <ellipse cx="550" cy="520" rx="365" ry="130" fill="#fffdf8"/>
  <ellipse cx="550" cy="500" rx="255" ry="96" fill="#d9a26f"/>
  <ellipse cx="550" cy="500" rx="205" ry="72" fill="#6c3c27"/>
  <path d="M390 496c55-58 100-32 160-4 62 30 107 24 162-28" fill="none" stroke="#fff7ef" stroke-width="36" stroke-linecap="round"/>
  <path d="M742 463c107-42 190 32 129 99-49 54-128 32-170-8" fill="none" stroke="#fffdf8" stroke-width="46" stroke-linecap="round"/>
  <path d="M742 463c107-42 190 32 129 99-49 54-128 32-170-8" fill="none" stroke="#172f42" stroke-width="18" stroke-linecap="round"/>
  <rect x="180" y="704" width="740" height="26" rx="13" fill="#e13223"/>
  <rect x="270" y="744" width="560" height="18" rx="9" fill="#172f42"/>
</svg>
