<svg xmlns="http://www.w3.org/2000/svg" viewBox="0 0 1600 1200" role="img" aria-label="Bar counter with coffee and breakfast">
  <defs>
    <linearGradient id="wall" x1="0" x2="1" y1="0" y2="1">
      <stop offset="0" stop-color="#fff7ef"/>
      <stop offset="0.48" stop-color="#f6d56d"/>
      <stop offset="1" stop-color="#69d2b8"/>
    </linearGradient>
    <linearGradient id="wood" x1="0" x2="1">
      <stop offset="0" stop-color="#43251a"/>
      <stop offset="1" stop-color="#8f4b2f"/>
    </linearGradient>
    <filter id="grain">
      <feTurbulence type="fractalNoise" baseFrequency=".9" numOctaves="3" stitchTiles="stitch"/>
      <feColorMatrix type="saturate" values="0"/>
      <feComponentTransfer><feFuncA type="table" tableValues="0 .08"/></feComponentTransfer>
    </filter>
  </defs>
  <rect width="1600" height="1200" fill="url(#wall)"/>
  <rect width="1600" height="1200" filter="url(#grain)"/>
  <rect x="0" y="0" width="1600" height="210" fill="#172f42" opacity=".96"/>
  <rect x="116" y="132" width="1368" height="70" fill="#fffdf8" opacity=".18"/>
  <g opacity=".85">
    <rect x="142" y="262" width="210" height="360" rx="8" fill="#172f42"/>
    <rect x="402" y="262" width="210" height="360" rx="8" fill="#172f42"/>
    <rect x="662" y="262" width="210" height="360" rx="8" fill="#172f42"/>
    <rect x="922" y="262" width="210" height="360" rx="8" fill="#172f42"/>
    <rect x="1182" y="262" width="210" height="360" rx="8" fill="#172f42"/>
  </g>
  <g fill="#fff7ef" opacity=".9">
    <circle cx="247" cy="384" r="55"/>
    <circle cx="507" cy="384" r="55"/>
    <circle cx="767" cy="384" r="55"/>
    <circle cx="1027" cy="384" r="55"/>
    <circle cx="1287" cy="384" r="55"/>
  </g>
  <rect x="0" y="670" width="1600" height="330" fill="url(#wood)"/>
  <rect x="0" y="650" width="1600" height="42" fill="#e13223"/>
  <ellipse cx="1065" cy="790" rx="205" ry="64" fill="#fffdf8"/>
  <ellipse cx="1065" cy="790" rx="148" ry="38" fill="#c78945"/>
  <ellipse cx="1065" cy="790" rx="92" ry="22" fill="#6d3d24"/>
  <path d="M1194 762c74-28 122 16 78 59-36 35-91 21-119-8" fill="none" stroke="#fffdf8" stroke-width="34" stroke-linecap="round"/>
  <path d="M1194 762c74-28 122 16 78 59-36 35-91 21-119-8" fill="none" stroke="#172f42" stroke-width="13" stroke-linecap="round"/>
  <ellipse cx="610" cy="806" rx="238" ry="78" fill="#fffdf8"/>
  <path d="M422 794c72-88 230-106 330 0 24 25 12 66-29 78-86 25-218 22-300-8-37-14-27-38-1-70z" fill="#e13223"/>
  <path d="M508 775c55-44 142-44 201 2" fill="none" stroke="#f6d56d" stroke-width="24" stroke-linecap="round"/>
  <rect x="170" y="796" width="214" height="72" rx="36" fill="#69d2b8"/>
  <circle cx="212" cy="832" r="18" fill="#172f42"/>
  <circle cx="340" cy="832" r="18" fill="#172f42"/>
  <rect x="0" y="1000" width="1600" height="200" fill="#18130f"/>
</svg>
